<mxfile host="app.diagrams.net" modified="2020-10-08T16:29:30.185Z" agent="5.0 (Windows)" etag="UdSAq6A-kHIg4gOQ-_Nm" version="13.7.8" type="github">
  <diagram id="uUUsgDNlKRt7WGdwvn5d" name="Page-1">
    <mxGraphModel dx="2062" dy="1123" grid="1" gridSize="10" guides="1" tooltips="1" connect="1" arrows="1" fold="1" page="1" pageScale="1" pageWidth="850" pageHeight="1100" math="0" shadow="0">
      <root>
        <mxCell id="0" />
        <mxCell id="1" parent="0" />
        <mxCell id="ZhetW5hGv-AF0VIRLDJA-10" style="edgeStyle=orthogonalEdgeStyle;rounded=0;orthogonalLoop=1;jettySize=auto;html=1;" parent="1" source="ZhetW5hGv-AF0VIRLDJA-2" target="ZhetW5hGv-AF0VIRLDJA-9" edge="1">
          <mxGeometry relative="1" as="geometry" />
        </mxCell>
        <mxCell id="ZhetW5hGv-AF0VIRLDJA-41" style="edgeStyle=orthogonalEdgeStyle;rounded=0;orthogonalLoop=1;jettySize=auto;html=1;entryX=0.5;entryY=0;entryDx=0;entryDy=0;" parent="1" source="ZhetW5hGv-AF0VIRLDJA-2" target="ZhetW5hGv-AF0VIRLDJA-40" edge="1">
          <mxGeometry relative="1" as="geometry" />
        </mxCell>
        <mxCell id="ZhetW5hGv-AF0VIRLDJA-2" value="Login" style="html=1;fillColor=#f5f5f5;strokeColor=#666666;fontColor=#333333;" parent="1" vertex="1">
          <mxGeometry x="190" y="450" width="110" height="50" as="geometry" />
        </mxCell>
        <mxCell id="ZhetW5hGv-AF0VIRLDJA-6" style="edgeStyle=orthogonalEdgeStyle;rounded=0;orthogonalLoop=1;jettySize=auto;html=1;entryX=0;entryY=0.5;entryDx=0;entryDy=0;" parent="1" source="ZhetW5hGv-AF0VIRLDJA-3" target="ZhetW5hGv-AF0VIRLDJA-5" edge="1">
          <mxGeometry relative="1" as="geometry" />
        </mxCell>
        <mxCell id="ZhetW5hGv-AF0VIRLDJA-21" style="edgeStyle=orthogonalEdgeStyle;rounded=0;orthogonalLoop=1;jettySize=auto;html=1;entryX=0;entryY=0.5;entryDx=0;entryDy=0;" parent="1" source="ZhetW5hGv-AF0VIRLDJA-3" target="ZhetW5hGv-AF0VIRLDJA-2" edge="1">
          <mxGeometry relative="1" as="geometry">
            <Array as="points">
              <mxPoint x="80" y="475" />
            </Array>
          </mxGeometry>
        </mxCell>
        <mxCell id="ZhetW5hGv-AF0VIRLDJA-3" value="&lt;div&gt;Home&lt;/div&gt;" style="html=1;fillColor=#dae8fc;strokeColor=#6c8ebf;" parent="1" vertex="1">
          <mxGeometry x="30" y="380" width="110" height="50" as="geometry" />
        </mxCell>
        <mxCell id="ZhetW5hGv-AF0VIRLDJA-20" value="" style="edgeStyle=orthogonalEdgeStyle;rounded=0;orthogonalLoop=1;jettySize=auto;html=1;" parent="1" source="ZhetW5hGv-AF0VIRLDJA-5" target="ZhetW5hGv-AF0VIRLDJA-2" edge="1">
          <mxGeometry relative="1" as="geometry" />
        </mxCell>
        <mxCell id="ZhetW5hGv-AF0VIRLDJA-5" value="&lt;div&gt;Register&lt;/div&gt;" style="html=1;fillColor=#f5f5f5;strokeColor=#666666;fontColor=#333333;" parent="1" vertex="1">
          <mxGeometry x="190" y="380" width="110" height="50" as="geometry" />
        </mxCell>
        <mxCell id="ZhetW5hGv-AF0VIRLDJA-25" style="edgeStyle=orthogonalEdgeStyle;rounded=0;orthogonalLoop=1;jettySize=auto;html=1;entryX=0;entryY=0.5;entryDx=0;entryDy=0;exitX=1;exitY=0.5;exitDx=0;exitDy=0;" parent="1" source="ZhetW5hGv-AF0VIRLDJA-9" target="ZhetW5hGv-AF0VIRLDJA-12" edge="1">
          <mxGeometry relative="1" as="geometry" />
        </mxCell>
        <mxCell id="ZhetW5hGv-AF0VIRLDJA-32" style="edgeStyle=orthogonalEdgeStyle;rounded=0;orthogonalLoop=1;jettySize=auto;html=1;exitX=0.5;exitY=1;exitDx=0;exitDy=0;entryX=0;entryY=0.5;entryDx=0;entryDy=0;" parent="1" source="ZhetW5hGv-AF0VIRLDJA-9" target="ZhetW5hGv-AF0VIRLDJA-14" edge="1">
          <mxGeometry relative="1" as="geometry" />
        </mxCell>
        <mxCell id="ZhetW5hGv-AF0VIRLDJA-63" style="edgeStyle=orthogonalEdgeStyle;rounded=0;orthogonalLoop=1;jettySize=auto;html=1;entryX=0;entryY=0.75;entryDx=0;entryDy=0;exitX=1;exitY=0.75;exitDx=0;exitDy=0;" parent="1" source="ZhetW5hGv-AF0VIRLDJA-9" target="ZhetW5hGv-AF0VIRLDJA-13" edge="1">
          <mxGeometry relative="1" as="geometry" />
        </mxCell>
        <mxCell id="ZhetW5hGv-AF0VIRLDJA-9" value="&lt;div&gt;Dashboard&lt;/div&gt;" style="html=1;fillColor=#dae8fc;strokeColor=#6c8ebf;" parent="1" vertex="1">
          <mxGeometry x="370" y="450" width="110" height="50" as="geometry" />
        </mxCell>
        <mxCell id="ZhetW5hGv-AF0VIRLDJA-19" style="edgeStyle=orthogonalEdgeStyle;rounded=0;orthogonalLoop=1;jettySize=auto;html=1;entryX=0;entryY=0.5;entryDx=0;entryDy=0;" parent="1" source="ZhetW5hGv-AF0VIRLDJA-12" target="ZhetW5hGv-AF0VIRLDJA-18" edge="1">
          <mxGeometry relative="1" as="geometry" />
        </mxCell>
        <mxCell id="ZhetW5hGv-AF0VIRLDJA-28" style="edgeStyle=orthogonalEdgeStyle;rounded=0;orthogonalLoop=1;jettySize=auto;html=1;exitX=1;exitY=0.75;exitDx=0;exitDy=0;entryX=0;entryY=0.5;entryDx=0;entryDy=0;" parent="1" source="ZhetW5hGv-AF0VIRLDJA-12" target="ZhetW5hGv-AF0VIRLDJA-13" edge="1">
          <mxGeometry relative="1" as="geometry" />
        </mxCell>
        <mxCell id="ZhetW5hGv-AF0VIRLDJA-29" style="edgeStyle=orthogonalEdgeStyle;rounded=0;orthogonalLoop=1;jettySize=auto;html=1;exitX=1;exitY=0.25;exitDx=0;exitDy=0;entryX=0;entryY=0.5;entryDx=0;entryDy=0;" parent="1" source="ZhetW5hGv-AF0VIRLDJA-12" target="ZhetW5hGv-AF0VIRLDJA-16" edge="1">
          <mxGeometry relative="1" as="geometry" />
        </mxCell>
        <mxCell id="ZhetW5hGv-AF0VIRLDJA-12" value="View teams" style="html=1;fillColor=#f5f5f5;strokeColor=#666666;fontColor=#333333;" parent="1" vertex="1">
          <mxGeometry x="520" y="410" width="110" height="50" as="geometry" />
        </mxCell>
        <mxCell id="ZhetW5hGv-AF0VIRLDJA-35" style="edgeStyle=orthogonalEdgeStyle;rounded=0;orthogonalLoop=1;jettySize=auto;html=1;" parent="1" source="ZhetW5hGv-AF0VIRLDJA-13" edge="1">
          <mxGeometry relative="1" as="geometry">
            <mxPoint x="850" y="505" as="targetPoint" />
          </mxGeometry>
        </mxCell>
        <mxCell id="ZhetW5hGv-AF0VIRLDJA-59" style="edgeStyle=orthogonalEdgeStyle;rounded=0;orthogonalLoop=1;jettySize=auto;html=1;exitX=1;exitY=0.75;exitDx=0;exitDy=0;entryX=0;entryY=0.5;entryDx=0;entryDy=0;" parent="1" source="ZhetW5hGv-AF0VIRLDJA-13" target="ZhetW5hGv-AF0VIRLDJA-58" edge="1">
          <mxGeometry relative="1" as="geometry" />
        </mxCell>
        <mxCell id="ZhetW5hGv-AF0VIRLDJA-13" value="View schedules" style="html=1;fillColor=#f5f5f5;strokeColor=#666666;fontColor=#333333;" parent="1" vertex="1">
          <mxGeometry x="690" y="480" width="110" height="50" as="geometry" />
        </mxCell>
        <mxCell id="ZhetW5hGv-AF0VIRLDJA-37" style="edgeStyle=orthogonalEdgeStyle;rounded=0;orthogonalLoop=1;jettySize=auto;html=1;entryX=0;entryY=0.5;entryDx=0;entryDy=0;" parent="1" source="ZhetW5hGv-AF0VIRLDJA-14" target="ZhetW5hGv-AF0VIRLDJA-33" edge="1">
          <mxGeometry relative="1" as="geometry" />
        </mxCell>
        <mxCell id="ZhetW5hGv-AF0VIRLDJA-38" style="edgeStyle=orthogonalEdgeStyle;rounded=0;orthogonalLoop=1;jettySize=auto;html=1;exitX=1;exitY=0.75;exitDx=0;exitDy=0;entryX=0;entryY=0.5;entryDx=0;entryDy=0;" parent="1" source="ZhetW5hGv-AF0VIRLDJA-14" target="ZhetW5hGv-AF0VIRLDJA-34" edge="1">
          <mxGeometry relative="1" as="geometry" />
        </mxCell>
        <mxCell id="ZhetW5hGv-AF0VIRLDJA-14" value="Settings" style="html=1;fillColor=#f5f5f5;strokeColor=#666666;fontColor=#333333;" parent="1" vertex="1">
          <mxGeometry x="520" y="580" width="110" height="50" as="geometry" />
        </mxCell>
        <mxCell id="ZhetW5hGv-AF0VIRLDJA-53" style="edgeStyle=orthogonalEdgeStyle;rounded=0;orthogonalLoop=1;jettySize=auto;html=1;entryX=0;entryY=0.5;entryDx=0;entryDy=0;" parent="1" source="ZhetW5hGv-AF0VIRLDJA-16" target="ZhetW5hGv-AF0VIRLDJA-22" edge="1">
          <mxGeometry relative="1" as="geometry" />
        </mxCell>
        <mxCell id="ZhetW5hGv-AF0VIRLDJA-16" value="Create new team" style="html=1;fillColor=#f5f5f5;strokeColor=#666666;fontColor=#333333;" parent="1" vertex="1">
          <mxGeometry x="690" y="330" width="110" height="50" as="geometry" />
        </mxCell>
        <mxCell id="ZhetW5hGv-AF0VIRLDJA-51" style="edgeStyle=orthogonalEdgeStyle;rounded=0;orthogonalLoop=1;jettySize=auto;html=1;entryX=0;entryY=0.75;entryDx=0;entryDy=0;" parent="1" source="ZhetW5hGv-AF0VIRLDJA-18" target="ZhetW5hGv-AF0VIRLDJA-22" edge="1">
          <mxGeometry relative="1" as="geometry" />
        </mxCell>
        <mxCell id="ZhetW5hGv-AF0VIRLDJA-55" style="edgeStyle=orthogonalEdgeStyle;rounded=0;orthogonalLoop=1;jettySize=auto;html=1;exitX=1;exitY=0.5;exitDx=0;exitDy=0;entryX=0;entryY=0.5;entryDx=0;entryDy=0;" parent="1" source="ZhetW5hGv-AF0VIRLDJA-18" target="ZhetW5hGv-AF0VIRLDJA-54" edge="1">
          <mxGeometry relative="1" as="geometry" />
        </mxCell>
        <mxCell id="ZhetW5hGv-AF0VIRLDJA-18" value="&lt;div&gt;Modify team&lt;/div&gt;" style="html=1;fillColor=#f5f5f5;strokeColor=#666666;fontColor=#333333;" parent="1" vertex="1">
          <mxGeometry x="690" y="410" width="110" height="50" as="geometry" />
        </mxCell>
        <mxCell id="ZhetW5hGv-AF0VIRLDJA-22" value="&lt;div&gt;- Add,delete,change members &lt;br&gt;&lt;/div&gt;&lt;div&gt;- Change team name&lt;/div&gt;&lt;div&gt;&lt;br&gt;&lt;/div&gt;" style="html=1;fillColor=#f5f5f5;strokeColor=#666666;fontColor=#333333;strokeWidth=1;spacing=5;spacingTop=11;" parent="1" vertex="1">
          <mxGeometry x="840" y="340" width="210" height="50" as="geometry" />
        </mxCell>
        <mxCell id="ZhetW5hGv-AF0VIRLDJA-33" value="&lt;div&gt;Change email&lt;/div&gt;" style="html=1;fillColor=#f5f5f5;strokeColor=#666666;fontColor=#333333;" parent="1" vertex="1">
          <mxGeometry x="680" y="580" width="110" height="50" as="geometry" />
        </mxCell>
        <mxCell id="ZhetW5hGv-AF0VIRLDJA-34" value="Change password" style="html=1;fillColor=#f5f5f5;strokeColor=#666666;fontColor=#333333;" parent="1" vertex="1">
          <mxGeometry x="680" y="650" width="110" height="50" as="geometry" />
        </mxCell>
        <mxCell id="ZhetW5hGv-AF0VIRLDJA-42" style="edgeStyle=orthogonalEdgeStyle;rounded=0;orthogonalLoop=1;jettySize=auto;html=1;entryX=0;entryY=0.75;entryDx=0;entryDy=0;exitX=0;exitY=0.5;exitDx=0;exitDy=0;" parent="1" source="ZhetW5hGv-AF0VIRLDJA-40" target="ZhetW5hGv-AF0VIRLDJA-2" edge="1">
          <mxGeometry relative="1" as="geometry" />
        </mxCell>
        <mxCell id="ZhetW5hGv-AF0VIRLDJA-40" value="&lt;div&gt;Forgotten &lt;br&gt;&lt;/div&gt;&lt;div&gt;password?&lt;/div&gt;" style="html=1;fillColor=#f5f5f5;strokeColor=#666666;fontColor=#333333;" parent="1" vertex="1">
          <mxGeometry x="190" y="530" width="110" height="50" as="geometry" />
        </mxCell>
        <mxCell id="ZhetW5hGv-AF0VIRLDJA-54" value="Remove team" style="html=1;fillColor=#f5f5f5;strokeColor=#666666;fontColor=#333333;" parent="1" vertex="1">
          <mxGeometry x="850" y="410" width="110" height="50" as="geometry" />
        </mxCell>
        <mxCell id="ZhetW5hGv-AF0VIRLDJA-61" style="edgeStyle=orthogonalEdgeStyle;rounded=0;orthogonalLoop=1;jettySize=auto;html=1;entryX=0;entryY=0.5;entryDx=0;entryDy=0;" parent="1" source="ZhetW5hGv-AF0VIRLDJA-57" target="ZhetW5hGv-AF0VIRLDJA-60" edge="1">
          <mxGeometry relative="1" as="geometry" />
        </mxCell>
        <mxCell id="ZhetW5hGv-AF0VIRLDJA-57" value="Add new schedule" style="html=1;strokeWidth=1;fillColor=#f5f5f5;strokeColor=#666666;fontColor=#333333;" parent="1" vertex="1">
          <mxGeometry x="850" y="480" width="110" height="50" as="geometry" />
        </mxCell>
        <mxCell id="ZhetW5hGv-AF0VIRLDJA-62" style="edgeStyle=orthogonalEdgeStyle;rounded=0;orthogonalLoop=1;jettySize=auto;html=1;entryX=0;entryY=0.75;entryDx=0;entryDy=0;" parent="1" source="ZhetW5hGv-AF0VIRLDJA-58" target="ZhetW5hGv-AF0VIRLDJA-60" edge="1">
          <mxGeometry relative="1" as="geometry" />
        </mxCell>
        <mxCell id="ZhetW5hGv-AF0VIRLDJA-58" value="Change schedule" style="html=1;strokeWidth=1;fillColor=#f5f5f5;strokeColor=#666666;fontColor=#333333;" parent="1" vertex="1">
          <mxGeometry x="850" y="550" width="110" height="50" as="geometry" />
        </mxCell>
        <mxCell id="ZhetW5hGv-AF0VIRLDJA-60" value="Scheduler" style="html=1;strokeWidth=1;fillColor=#dae8fc;strokeColor=#6c8ebf;" parent="1" vertex="1">
          <mxGeometry x="1040" y="510" width="110" height="50" as="geometry" />
        </mxCell>
        <mxCell id="ZhetW5hGv-AF0VIRLDJA-65" style="edgeStyle=orthogonalEdgeStyle;rounded=0;orthogonalLoop=1;jettySize=auto;html=1;entryX=1;entryY=0.5;entryDx=0;entryDy=0;" parent="1" source="ZhetW5hGv-AF0VIRLDJA-64" target="ZhetW5hGv-AF0VIRLDJA-60" edge="1">
          <mxGeometry relative="1" as="geometry" />
        </mxCell>
        <mxCell id="ZhetW5hGv-AF0VIRLDJA-64" value="&lt;div&gt;- change name of schedule&lt;/div&gt;&lt;div&gt;- change default opening and closing time&lt;br&gt;&lt;/div&gt;&lt;div&gt;- date range from and to, datetimepicker&lt;/div&gt;&lt;div&gt;- add new member to team&lt;/div&gt;&lt;div&gt;- drag and drop team members&lt;/div&gt;&lt;div&gt;- choose availability for each team member&lt;/div&gt;&lt;div&gt;- publish schedule (notify team members)&lt;br&gt;&lt;/div&gt;&lt;div&gt;- export to pdf/png/json&lt;/div&gt;&lt;div&gt;&lt;br&gt;&lt;/div&gt;&lt;div&gt;&lt;br&gt;&lt;/div&gt;" style="shape=note;whiteSpace=wrap;html=1;size=14;verticalAlign=top;align=left;spacingTop=-6;strokeWidth=1;" parent="1" vertex="1">
          <mxGeometry x="1210" y="500" width="270" height="180" as="geometry" />
        </mxCell>
      </root>
    </mxGraphModel>
  </diagram>
</mxfile>
